<svg width="30" height="30" viewBox="0 0 30 30" fill="none" xmlns="http://www.w3.org/2000/svg">
    <circle cx="15" cy="15" r="15" fill="rgba(30, 136, 229, 0.3)" fill-opacity="0.2"/>
    <path d="M16.0381 14.3725L21.1252 9.29902C21.2257 9.18194 21.2782 9.03134 21.2723 8.87732C21.2663 8.72329 21.2023 8.57719 21.093 8.46819C20.9837 8.3592 20.8372 8.29535 20.6828 8.2894C20.5283 8.28345 20.3773 8.33584 20.2599 8.4361L15.1729 13.5095L10.0859 8.42998C9.97031 8.31474 9.81359 8.25 9.65017 8.25C9.48676 8.25 9.33004 8.31474 9.21449 8.42998C9.09894 8.54522 9.03403 8.70152 9.03403 8.8645C9.03403 9.02747 9.09894 9.18378 9.21449 9.29902L14.3077 14.3725L9.21449 19.4459C9.15026 19.5008 9.09808 19.5683 9.06125 19.6442C9.02442 19.7201 9.00372 19.8028 9.00046 19.8871C8.99719 19.9714 9.01143 20.0554 9.04228 20.134C9.07313 20.2125 9.11993 20.2838 9.17973 20.3435C9.23953 20.4031 9.31105 20.4498 9.38979 20.4806C9.46854 20.5113 9.55281 20.5255 9.63732 20.5223C9.72183 20.519 9.80475 20.4984 9.88088 20.4616C9.95701 20.4249 10.0247 20.3729 10.0797 20.3088L15.1729 15.2354L20.2599 20.3088C20.3773 20.4091 20.5283 20.4615 20.6828 20.4555C20.8372 20.4496 20.9837 20.3857 21.093 20.2767C21.2023 20.1677 21.2663 20.0216 21.2723 19.8676C21.2782 19.7136 21.2257 19.563 21.1252 19.4459L16.0381 14.3725Z"
          fill="rgba(30, 136, 229, 0.3)"/>
</svg>
